<svg version="1.1" xmlns="http://www.w3.org/2000/svg" viewBox="0 0 3201.689064130419 1229.193888046455" width="6403.378128260838" height="2458.38777609291">
  <!-- svg-source:excalidraw -->
  
  <defs>
    <style class="style-fonts">
      @font-face {
        font-family: "Virgil";
        src: url("https://excalidraw.com/Virgil.woff2");
      }
      @font-face {
        font-family: "Cascadia";
        src: url("https://excalidraw.com/Cascadia.woff2");
      }
      @font-face {
        font-family: "Assistant";
        src: url("https://excalidraw.com/Assistant-Regular.woff2");
      }
    </style>
    
  </defs>
  <rect x="0" y="0" width="3201.689064130419" height="1229.193888046455" fill="#ffffff"></rect><g transform="translate(10 494.1938880464551) rotate(0 466.4095458984375 362.5)"><text x="0" y="17.52" font-family="Virgil, Segoe UI Emoji" font-size="20px" fill="#1971c2" text-anchor="start" style="white-space: pre;" direction="ltr" dominant-baseline="alphabetic">Weather Application</text><text x="0" y="42.519999999999996" font-family="Virgil, Segoe UI Emoji" font-size="20px" fill="#1971c2" text-anchor="start" style="white-space: pre;" direction="ltr" dominant-baseline="alphabetic"></text><text x="0" y="67.52" font-family="Virgil, Segoe UI Emoji" font-size="20px" fill="#1971c2" text-anchor="start" style="white-space: pre;" direction="ltr" dominant-baseline="alphabetic"></text><text x="0" y="92.52" font-family="Virgil, Segoe UI Emoji" font-size="20px" fill="#1971c2" text-anchor="start" style="white-space: pre;" direction="ltr" dominant-baseline="alphabetic">Functional Requirements</text><text x="0" y="117.52" font-family="Virgil, Segoe UI Emoji" font-size="20px" fill="#1971c2" text-anchor="start" style="white-space: pre;" direction="ltr" dominant-baseline="alphabetic">1. Able to get current location weather</text><text x="0" y="142.52" font-family="Virgil, Segoe UI Emoji" font-size="20px" fill="#1971c2" text-anchor="start" style="white-space: pre;" direction="ltr" dominant-baseline="alphabetic">2. Able to find other location weather</text><text x="0" y="167.52" font-family="Virgil, Segoe UI Emoji" font-size="20px" fill="#1971c2" text-anchor="start" style="white-space: pre;" direction="ltr" dominant-baseline="alphabetic"></text><text x="0" y="192.52" font-family="Virgil, Segoe UI Emoji" font-size="20px" fill="#1971c2" text-anchor="start" style="white-space: pre;" direction="ltr" dominant-baseline="alphabetic"></text><text x="0" y="217.52" font-family="Virgil, Segoe UI Emoji" font-size="20px" fill="#1971c2" text-anchor="start" style="white-space: pre;" direction="ltr" dominant-baseline="alphabetic">Non Functional Requirements</text><text x="0" y="242.52" font-family="Virgil, Segoe UI Emoji" font-size="20px" fill="#1971c2" text-anchor="start" style="white-space: pre;" direction="ltr" dominant-baseline="alphabetic">1. Low Latency</text><text x="0" y="267.52" font-family="Virgil, Segoe UI Emoji" font-size="20px" fill="#1971c2" text-anchor="start" style="white-space: pre;" direction="ltr" dominant-baseline="alphabetic">2. High Availability</text><text x="0" y="292.52" font-family="Virgil, Segoe UI Emoji" font-size="20px" fill="#1971c2" text-anchor="start" style="white-space: pre;" direction="ltr" dominant-baseline="alphabetic">3. Scalability</text><text x="0" y="317.52" font-family="Virgil, Segoe UI Emoji" font-size="20px" fill="#1971c2" text-anchor="start" style="white-space: pre;" direction="ltr" dominant-baseline="alphabetic">   Request Per Seconds: 1000</text><text x="0" y="342.52" font-family="Virgil, Segoe UI Emoji" font-size="20px" fill="#1971c2" text-anchor="start" style="white-space: pre;" direction="ltr" dominant-baseline="alphabetic">   Per day: 1000 * 60 ( per min ) * 60 ( per hour ) * 24 ( per day ) = 10^3 * 86400</text><text x="0" y="367.52" font-family="Virgil, Segoe UI Emoji" font-size="20px" fill="#1971c2" text-anchor="start" style="white-space: pre;" direction="ltr" dominant-baseline="alphabetic">        we can round 86400 -&gt; 100.000 -&gt; 10^5</text><text x="0" y="392.52" font-family="Virgil, Segoe UI Emoji" font-size="20px" fill="#1971c2" text-anchor="start" style="white-space: pre;" direction="ltr" dominant-baseline="alphabetic">        10^8 request per day.</text><text x="0" y="417.52" font-family="Virgil, Segoe UI Emoji" font-size="20px" fill="#1971c2" text-anchor="start" style="white-space: pre;" direction="ltr" dominant-baseline="alphabetic">   Per year: 10^8 * 365</text><text x="0" y="442.52" font-family="Virgil, Segoe UI Emoji" font-size="20px" fill="#1971c2" text-anchor="start" style="white-space: pre;" direction="ltr" dominant-baseline="alphabetic">   Per 10 year: 10^9 * 365</text><text x="0" y="467.52" font-family="Virgil, Segoe UI Emoji" font-size="20px" fill="#1971c2" text-anchor="start" style="white-space: pre;" direction="ltr" dominant-baseline="alphabetic"></text><text x="0" y="492.52" font-family="Virgil, Segoe UI Emoji" font-size="20px" fill="#1971c2" text-anchor="start" style="white-space: pre;" direction="ltr" dominant-baseline="alphabetic"></text><text x="0" y="517.52" font-family="Virgil, Segoe UI Emoji" font-size="20px" fill="#1971c2" text-anchor="start" style="white-space: pre;" direction="ltr" dominant-baseline="alphabetic">   The request above is very huge. around 365B request per 10 year, and 36M req per year.</text><text x="0" y="542.52" font-family="Virgil, Segoe UI Emoji" font-size="20px" fill="#1971c2" text-anchor="start" style="white-space: pre;" direction="ltr" dominant-baseline="alphabetic">    Keep in mind that we are using OpenWeatherAPI, it's third party</text><text x="0" y="567.52" font-family="Virgil, Segoe UI Emoji" font-size="20px" fill="#1971c2" text-anchor="start" style="white-space: pre;" direction="ltr" dominant-baseline="alphabetic"></text><text x="0" y="592.52" font-family="Virgil, Segoe UI Emoji" font-size="20px" fill="#1971c2" text-anchor="start" style="white-space: pre;" direction="ltr" dominant-baseline="alphabetic"></text><text x="0" y="617.52" font-family="Virgil, Segoe UI Emoji" font-size="20px" fill="#1971c2" text-anchor="start" style="white-space: pre;" direction="ltr" dominant-baseline="alphabetic"></text><text x="0" y="642.52" font-family="Virgil, Segoe UI Emoji" font-size="20px" fill="#1971c2" text-anchor="start" style="white-space: pre;" direction="ltr" dominant-baseline="alphabetic"></text><text x="0" y="667.52" font-family="Virgil, Segoe UI Emoji" font-size="20px" fill="#1971c2" text-anchor="start" style="white-space: pre;" direction="ltr" dominant-baseline="alphabetic"></text><text x="0" y="692.52" font-family="Virgil, Segoe UI Emoji" font-size="20px" fill="#1971c2" text-anchor="start" style="white-space: pre;" direction="ltr" dominant-baseline="alphabetic"> </text><text x="0" y="717.52" font-family="Virgil, Segoe UI Emoji" font-size="20px" fill="#1971c2" text-anchor="start" style="white-space: pre;" direction="ltr" dominant-baseline="alphabetic"></text></g><g stroke-linecap="round" transform="translate(1131.0855965993492 548.063074383324) rotate(0 29.16193362735021 58.323867254700446)"><path d="M-0.72 -0.46 L58.31 1.48 L59.67 116.83 L1.19 116.29" stroke="none" stroke-width="0" fill="#a5d8ff"></path><path d="M0 0 C19.37 -1.65, 39.39 1.36, 58.32 0 M0 0 C11.41 1.25, 24.11 0.39, 58.32 0 M58.32 0 C57.3 35.38, 59.64 74, 58.32 116.65 M58.32 0 C60.11 24.88, 58.69 50.52, 58.32 116.65 M58.32 116.65 C44.74 117.78, 28.9 114.92, 0 116.65 M58.32 116.65 C41.62 117.12, 25.04 116.13, 0 116.65 M0 116.65 C-0.61 71.17, 0.09 25.07, 0 0 M0 116.65 C2.01 75.5, 0.55 33.82, 0 0" stroke="#1971c2" stroke-width="2" fill="none"></path></g><g transform="translate(1137.9075567769924 593.8869416380244) rotate(0 22.33997344970703 12.5)"><text x="22.33997344970703" y="17.52" font-family="Virgil, Segoe UI Emoji" font-size="20px" fill="#1971c2" text-anchor="middle" style="white-space: pre;" direction="ltr" dominant-baseline="alphabetic">User</text></g><g stroke-linecap="round" transform="translate(1370.1343853168219 546.2127769847476) rotate(0 29.16193362735021 58.323867254700446)"><path d="M1.59 1.35 L58.04 -0.16 L59.99 114.72 L-0.22 115.35" stroke="none" stroke-width="0" fill="#a5d8ff"></path><path d="M0 0 C10.62 1.2, 22.86 2.25, 58.32 0 M0 0 C12.22 -0.49, 26.07 -0.3, 58.32 0 M58.32 0 C55.75 42.55, 56.94 88.82, 58.32 116.65 M58.32 0 C58.29 39.12, 57.28 79.74, 58.32 116.65 M58.32 116.65 C37.37 114.63, 21.81 115.37, 0 116.65 M58.32 116.65 C41.49 116.27, 24.99 117.03, 0 116.65 M0 116.65 C-2.5 76.76, -0.69 35.95, 0 0 M0 116.65 C1.42 84.63, -0.14 52.24, 0 0" stroke="#1971c2" stroke-width="2" fill="none"></path></g><g transform="translate(1386.0363244373361 592.0366442394482) rotate(0 13.259994506835938 12.5)"><text x="13.259994506835938" y="17.52" font-family="Virgil, Segoe UI Emoji" font-size="20px" fill="#1971c2" text-anchor="middle" style="white-space: pre;" direction="ltr" dominant-baseline="alphabetic">LB</text></g><g stroke-linecap="round" transform="translate(1584.216196172787 542.3285749413427) rotate(0 86.4947812843518 56.66899463457543)"><path d="M-1.59 0.33 L173.23 1.74 L171.28 112.97 L1.15 111.69" stroke="none" stroke-width="0" fill="#ffec99"></path><path d="M0 0 C43.25 1.12, 89.06 2.19, 172.99 0 M0 0 C47.85 -1.15, 94.71 -1.56, 172.99 0 M172.99 0 C173.14 44.1, 175.13 88.95, 172.99 113.34 M172.99 0 C173.78 38.7, 171.93 75.19, 172.99 113.34 M172.99 113.34 C127.14 114.25, 79.99 111.3, 0 113.34 M172.99 113.34 C125.07 113.32, 78.64 112.62, 0 113.34 M0 113.34 C0.21 81, -0.58 49.37, 0 0 M0 113.34 C0.62 80.67, 1.06 48.02, 0 0" stroke="#f08c00" stroke-width="2" fill="none"></path></g><g transform="translate(1607.1310442906351 586.4975695759181) rotate(0 63.579933166503906 12.5)"><text x="63.579933166503906" y="17.52" font-family="Virgil, Segoe UI Emoji" font-size="20px" fill="#f08c00" text-anchor="middle" style="white-space: pre;" direction="ltr" dominant-baseline="alphabetic">Weather API</text></g><g stroke-linecap="round"><g transform="translate(1206.7069537199009 597.719321576642) rotate(0 69.45147462733689 1.2782479992761466)"><path d="M0 0 C44.54 -0.84, 91.74 2.62, 138.9 2.56 M0 0 C38.93 1.66, 80.56 1.98, 138.9 2.56" stroke="#1971c2" stroke-width="2" fill="none"></path></g><g transform="translate(1206.7069537199009 597.719321576642) rotate(0 69.45147462733689 1.2782479992761466)"><path d="M115.32 10.87 C121.92 6.43, 131.15 6.32, 138.9 2.56 M115.32 10.87 C121.22 8.52, 129.81 5.72, 138.9 2.56" stroke="#1971c2" stroke-width="2" fill="none"></path></g><g transform="translate(1206.7069537199009 597.719321576642) rotate(0 69.45147462733689 1.2782479992761466)"><path d="M115.5 -6.23 C122.01 -5.04, 131.19 0.47, 138.9 2.56 M115.5 -6.23 C121.32 -3.68, 129.86 -1.58, 138.9 2.56" stroke="#1971c2" stroke-width="2" fill="none"></path></g></g><mask></mask><g stroke-linecap="round"><g transform="translate(1440.6263375874341 601.619526029709) rotate(0 69.45147462733689 1.2782479992761466)"><path d="M0 0 C44.84 2.45, 84.23 3.3, 138.9 2.56 M0 0 C34.47 0.75, 70.4 2.1, 138.9 2.56" stroke="#1971c2" stroke-width="2" fill="none"></path></g><g transform="translate(1440.6263375874341 601.619526029709) rotate(0 69.45147462733689 1.2782479992761466)"><path d="M115.31 10.84 C124.41 9.19, 128.08 6.68, 138.9 2.56 M115.31 10.84 C120.88 8.26, 127.8 6.9, 138.9 2.56" stroke="#1971c2" stroke-width="2" fill="none"></path></g><g transform="translate(1440.6263375874341 601.619526029709) rotate(0 69.45147462733689 1.2782479992761466)"><path d="M115.51 -6.26 C124.6 -2.62, 128.21 0.17, 138.9 2.56 M115.51 -6.26 C120.87 -4.53, 127.74 -1.6, 138.9 2.56" stroke="#1971c2" stroke-width="2" fill="none"></path></g></g><mask></mask><g stroke-linecap="round" transform="translate(1583.2577249935753 672.8515370787301) rotate(0 86.4947812843518 56.66899463457543)"><path d="M0.51 1.79 L172.34 -0.4 L171.64 113.46 L-0.68 111.69" stroke="none" stroke-width="0" fill="#ffec99"></path><path d="M0 0 C53.63 2.29, 109.36 1.22, 172.99 0 M0 0 C38.77 -0.13, 76.7 -0.66, 172.99 0 M172.99 0 C173.13 38.13, 171.83 74.59, 172.99 113.34 M172.99 0 C174.43 41.5, 173.84 81.81, 172.99 113.34 M172.99 113.34 C131.18 112.53, 91.52 114.93, 0 113.34 M172.99 113.34 C122.34 112.82, 71.81 113.54, 0 113.34 M0 113.34 C-0.2 83.3, 1.44 56.49, 0 0 M0 113.34 C0.99 78.24, -0.2 45.39, 0 0" stroke="#f08c00" stroke-width="2" fill="none"></path></g><g transform="translate(1606.1725731114234 717.0205317133054) rotate(0 63.579933166503906 12.500000000000028)"><text x="63.579933166503906" y="17.52" font-family="Virgil, Segoe UI Emoji" font-size="20px" fill="#f08c00" text-anchor="middle" style="white-space: pre;" direction="ltr" dominant-baseline="alphabetic">Weather API</text></g><g stroke-linecap="round" transform="translate(1583.9989654774413 414.1586082091902) rotate(0 86.4947812843518 56.66899463457543)"><path d="M-1.95 1.76 L171.17 1.1 L171.12 113.88 L0.45 114.85" stroke="none" stroke-width="0" fill="#ffec99"></path><path d="M0 0 C49.21 0.43, 97.39 1.8, 172.99 0 M0 0 C45.1 -0.59, 88.86 -1.51, 172.99 0 M172.99 0 C173.89 24.46, 170.09 48.29, 172.99 113.34 M172.99 0 C172.79 29.28, 173.48 59.87, 172.99 113.34 M172.99 113.34 C135.25 111.04, 96.27 111.81, 0 113.34 M172.99 113.34 C106.51 112.12, 39.18 111.68, 0 113.34 M0 113.34 C-0.25 87.9, -0.96 61.24, 0 0 M0 113.34 C0.81 84.35, -0.21 56.92, 0 0" stroke="#f08c00" stroke-width="2" fill="none"></path></g><g transform="translate(1606.913813595289 458.32760284376565) rotate(0 63.579933166503906 12.5)"><text x="63.579933166503906" y="17.52" font-family="Virgil, Segoe UI Emoji" font-size="20px" fill="#f08c00" text-anchor="middle" style="white-space: pre;" direction="ltr" dominant-baseline="alphabetic">Weather API</text></g><g stroke-linecap="round"><g transform="translate(1868.302388843024 603.7308470271641) rotate(0 58.03752341876066 2.7340010321823627)"><path d="M0 0 C27.09 3.12, 53.86 2.21, 116.08 5.47 M0 0 C23.06 1.61, 46.15 1.32, 116.08 5.47" stroke="#f08c00" stroke-width="2" fill="none"></path></g><g transform="translate(1868.302388843024 603.7308470271641) rotate(0 58.03752341876066 2.7340010321823627)"><path d="M92.17 12.77 C97.76 12.05, 103.12 8.16, 116.08 5.47 M92.17 12.77 C96.73 11.98, 101.28 9.12, 116.08 5.47" stroke="#f08c00" stroke-width="2" fill="none"></path></g><g transform="translate(1868.302388843024 603.7308470271641) rotate(0 58.03752341876066 2.7340010321823627)"><path d="M93.06 -4.3 C98.56 -1.07, 103.7 -0.99, 116.08 5.47 M93.06 -4.3 C97.39 -1.66, 101.76 -1.08, 116.08 5.47" stroke="#f08c00" stroke-width="2" fill="none"></path></g></g><mask></mask><g stroke-linecap="round"><g transform="translate(1758.150433402785 472.23241372760316) rotate(0 54.33003759544158 64.20822624915832)"><path d="M0 0 C22.36 25.99, 43.25 55.97, 108.66 128.42 M0 0 C27.24 32.93, 55.04 64.44, 108.66 128.42" stroke="#f08c00" stroke-width="2" fill="none"></path></g></g><mask></mask><g stroke-linecap="round"><g transform="translate(1759.048450553123 602.4449005265956) rotate(0 54.7790461706104 0)"><path d="M0 0 C42 1.73, 84.06 -0.12, 109.56 0 M0 0 C38.28 0.25, 78.13 0.57, 109.56 0" stroke="#f08c00" stroke-width="2" fill="none"></path></g></g><mask></mask><g stroke-linecap="round"><g transform="translate(1764.4365534551503 730.8613530249122) rotate(0 51.63598614442799 -62.86120052365152)"><path d="M0 0 C37.24 -45.23, 76.87 -93.12, 103.27 -125.72 M0 0 C39.97 -49.43, 80.46 -98.03, 103.27 -125.72" stroke="#f08c00" stroke-width="2" fill="none"></path></g></g><mask></mask><g stroke-linecap="round" transform="translate(2250.933422423278 262.8535842193669) rotate(0 64.20822624915809 65.55525197466517)"><path d="M0.91 -0.34 L127.37 1.41 L130.12 132.17 L-1.81 130.6" stroke="none" stroke-width="0" fill="#b2f2bb"></path><path d="M0 0 C36.58 -1.27, 71.18 -1.66, 128.42 0 M0 0 C29.98 -1.41, 59.56 -1.92, 128.42 0 M128.42 0 C130.15 48.08, 126.71 96.73, 128.42 131.11 M128.42 0 C129.3 42.09, 128.85 85.5, 128.42 131.11 M128.42 131.11 C101.12 130.06, 73.1 130.46, 0 131.11 M128.42 131.11 C83.96 131.84, 41.92 132.35, 0 131.11 M0 131.11 C1.22 80.67, -0.98 33.6, 0 0 M0 131.11 C-1.75 87.24, -1.4 45.17, 0 0" stroke="#2f9e44" stroke-width="2" fill="none"></path></g><g transform="translate(2263.171708486889 315.90883619403206) rotate(0 51.969940185546875 12.5)"><text x="51.969940185546875" y="17.52" font-family="Virgil, Segoe UI Emoji" font-size="20px" fill="#2f9e44" text-anchor="middle" style="white-space: pre;" direction="ltr" dominant-baseline="alphabetic">Cassandra</text></g><g stroke-linecap="round" transform="translate(1998.2185354127178 527.6414097326729) rotate(0 64.20822624915809 65.55525197466517)"><path d="M1.46 -0.32 L130.03 1.69 L127.39 132.15 L1.67 130.7" stroke="none" stroke-width="0" fill="#ffc9c9"></path><path d="M0 0 C42.47 0.4, 83.33 0.36, 128.42 0 M0 0 C45.27 0.32, 92.12 1.45, 128.42 0 M128.42 0 C128.19 26.52, 126.01 53.08, 128.42 131.11 M128.42 0 C128.31 44.11, 127.08 86.57, 128.42 131.11 M128.42 131.11 C83.1 129.6, 41.64 130.33, 0 131.11 M128.42 131.11 C92.84 129.72, 54.53 130.04, 0 131.11 M0 131.11 C-1.32 84.86, -1.54 41.26, 0 0 M0 131.11 C0.42 92.63, 0.57 52.56, 0 0" stroke="#e03131" stroke-width="2" fill="none"></path></g><g transform="translate(2036.8667946208602 580.6966617073381) rotate(0 25.559967041015625 12.5)"><text x="25.559967041015625" y="17.52" font-family="Virgil, Segoe UI Emoji" font-size="20px" fill="#e03131" text-anchor="middle" style="white-space: pre;" direction="ltr" dominant-baseline="alphabetic">Redis</text></g><g stroke-linecap="round"><g transform="translate(1996.6286899889092 637.4055865081997) rotate(0 -69.82652504070052 0)"><path d="M0 0 C-38.5 0.76, -76.67 -2.98, -139.65 0 M0 0 C-53.39 -1.07, -107.98 -1.2, -139.65 0" stroke="#e03131" stroke-width="2" fill="none"></path></g><g transform="translate(1996.6286899889092 637.4055865081997) rotate(0 -69.82652504070052 0)"><path d="M-116.35 -9.05 C-122.02 -4.81, -127.45 -5.99, -139.65 0 M-116.35 -9.05 C-124.98 -6.42, -134.83 -3.06, -139.65 0" stroke="#e03131" stroke-width="2" fill="none"></path></g><g transform="translate(1996.6286899889092 637.4055865081997) rotate(0 -69.82652504070052 0)"><path d="M-115.98 8.04 C-121.91 7.48, -127.45 1.48, -139.65 0 M-115.98 8.04 C-124.8 4.11, -134.8 0.89, -139.65 0" stroke="#e03131" stroke-width="2" fill="none"></path></g></g><mask></mask><g transform="translate(1425.9311295601065 872.5027618701407) rotate(0 882.8789672851562 112.5)"><text x="0" y="17.52" font-family="Virgil, Segoe UI Emoji" font-size="20px" fill="#e03131" text-anchor="start" style="white-space: pre;" direction="ltr" dominant-baseline="alphabetic">1. The user will hit LB with the lat long they query</text><text x="0" y="42.519999999999996" font-family="Virgil, Segoe UI Emoji" font-size="20px" fill="#e03131" text-anchor="start" style="white-space: pre;" direction="ltr" dominant-baseline="alphabetic">2. The LB will spread the load to each services</text><text x="0" y="67.52" font-family="Virgil, Segoe UI Emoji" font-size="20px" fill="#e03131" text-anchor="start" style="white-space: pre;" direction="ltr" dominant-baseline="alphabetic">3. The services will call redis, if it's not there call the cassandra</text><text x="0" y="92.52" font-family="Virgil, Segoe UI Emoji" font-size="20px" fill="#e03131" text-anchor="start" style="white-space: pre;" direction="ltr" dominant-baseline="alphabetic">4. The cassandra will check again, if there is a value there</text><text x="0" y="117.52" font-family="Virgil, Segoe UI Emoji" font-size="20px" fill="#e03131" text-anchor="start" style="white-space: pre;" direction="ltr" dominant-baseline="alphabetic">5. If it's not, it will goes to opernweathermap api ( 3rd party )</text><text x="0" y="142.52" font-family="Virgil, Segoe UI Emoji" font-size="20px" fill="#e03131" text-anchor="start" style="white-space: pre;" direction="ltr" dominant-baseline="alphabetic">6. Openweather map will return result, save to cassandra for permanent store</text><text x="0" y="167.52" font-family="Virgil, Segoe UI Emoji" font-size="20px" fill="#e03131" text-anchor="start" style="white-space: pre;" direction="ltr" dominant-baseline="alphabetic">7. Cassandra will return back to redis logic, and save the value on redis as well for that specific location query</text><text x="0" y="192.52" font-family="Virgil, Segoe UI Emoji" font-size="20px" fill="#e03131" text-anchor="start" style="white-space: pre;" direction="ltr" dominant-baseline="alphabetic"></text><text x="0" y="217.52" font-family="Virgil, Segoe UI Emoji" font-size="20px" fill="#e03131" text-anchor="start" style="white-space: pre;" direction="ltr" dominant-baseline="alphabetic">By using these logics, we can assume that request to the third party will be lesser, because of we're using Redis and Cassandra as storage for equivalent query in the future.</text></g><g stroke-linecap="round" transform="translate(2238.335892052873 519.3416832989045) rotate(0 79.89765846003229 70.74254231395395)"><path d="M80.04 1.02 L158.59 71.42 L79.25 140.91 L-1.68 70.04" stroke="none" stroke-width="0" fill="#ffc9c9" fill-rule="evenodd"></path><path d="M80 0 C110.55 25.1, 139.65 51.81, 159.8 71 M80 0 C112.78 26.31, 144.04 55.98, 159.8 71 M159.8 71 C138.45 90.29, 120.66 108.19, 80 141.49 M159.8 71 C143.12 85.83, 125.83 100.55, 80 141.49 M80 141.49 C50.55 114.16, 18.07 87.42, 0 71 M80 141.49 C53.14 119.38, 28.51 97.67, 0 71 M0 71 C16.59 55.95, 34.43 40.87, 80 0 M0 71 C22.47 51.73, 45.05 32.19, 80 0" stroke="#e03131" stroke-width="2" fill="none"></path></g><g transform="translate(2287.9947585143345 577.7129544558815) rotate(0 30.289962768554688 12.5)"><text x="30.289962768554688" y="17.52" font-family="Virgil, Segoe UI Emoji" font-size="20px" fill="#e03131" text-anchor="middle" style="white-space: pre;" direction="ltr" dominant-baseline="alphabetic">Exist?</text></g><g stroke-linecap="round"><g transform="translate(2137.6245578595554 595.8822972858264) rotate(0 49.012849307414854 -1.3428177892442363)"><path d="M0 0 C25.86 1, 52.39 -0.28, 98.03 -2.69 M0 0 C31.03 -1.18, 61.78 -0.58, 98.03 -2.69" stroke="#e03131" stroke-width="2" fill="none"></path></g><g transform="translate(2137.6245578595554 595.8822972858264) rotate(0 49.012849307414854 -1.3428177892442363)"><path d="M74.9 6.82 C81.11 5.94, 87.99 2.87, 98.03 -2.69 M74.9 6.82 C82.33 3.22, 89.53 1.68, 98.03 -2.69" stroke="#e03131" stroke-width="2" fill="none"></path></g><g transform="translate(2137.6245578595554 595.8822972858264) rotate(0 49.012849307414854 -1.3428177892442363)"><path d="M74.2 -10.26 C80.56 -6.66, 87.62 -5.24, 98.03 -2.69 M74.2 -10.26 C81.99 -8.49, 89.41 -4.66, 98.03 -2.69" stroke="#e03131" stroke-width="2" fill="none"></path></g></g><mask></mask><g mask="url(#mask-jpl0RYiTcZuTU47HeCPhF)" stroke-linecap="round"><g transform="translate(2315.983330790649 513.2688518235409) rotate(0 -1.2248212700490058 -43.290797991244574)"><path d="M0 0 C-1.54 -29.57, 0.05 -58.34, -2.45 -86.58 M0 0 C-1.55 -29.81, -1.72 -59.89, -2.45 -86.58" stroke="#e03131" stroke-width="2" fill="none"></path></g><g transform="translate(2315.983330790649 513.2688518235409) rotate(0 -1.2248212700490058 -43.290797991244574)"><path d="M6.63 -63.29 C3.1 -72.2, 2.54 -80.37, -2.45 -86.58 M6.63 -63.29 C3.16 -71.07, 0.69 -79.16, -2.45 -86.58" stroke="#e03131" stroke-width="2" fill="none"></path></g><g transform="translate(2315.983330790649 513.2688518235409) rotate(0 -1.2248212700490058 -43.290797991244574)"><path d="M-10.47 -62.9 C-8.43 -72.09, -3.43 -80.39, -2.45 -86.58 M-10.47 -62.9 C-8 -70.91, -4.53 -79.14, -2.45 -86.58" stroke="#e03131" stroke-width="2" fill="none"></path></g></g><mask id="mask-jpl0RYiTcZuTU47HeCPhF"><rect x="0" y="0" fill="#fff" width="2418.432973330747" height="699.85044780603"></rect><rect x="2302.7785214224546" y="457.47805383229627" fill="#000" width="23.959976196289062" height="25" opacity="1"></rect></mask><g transform="translate(2302.778521422455 457.4780538322963) rotate(0 11.979988098144759 12.5)"><text x="11.979988098144531" y="17.52" font-family="Virgil, Segoe UI Emoji" font-size="20px" fill="#e03131" text-anchor="middle" style="white-space: pre;" direction="ltr" dominant-baseline="alphabetic">No</text></g><g stroke-linecap="round"><g transform="translate(2285.334514676422 644.2237376986193) rotate(0 -74.52638730305557 -0.6714088946221182)"><path d="M0 0 C-49.78 -0.28, -98.45 -0.91, -149.05 -1.34 M0 0 C-50.87 0.31, -101.88 -0.27, -149.05 -1.34" stroke="#e03131" stroke-width="2" fill="none"></path></g><g transform="translate(2285.334514676422 644.2237376986193) rotate(0 -74.52638730305557 -0.6714088946221182)"><path d="M-125.4 -9.45 C-133.8 -6.06, -141.14 -3.58, -149.05 -1.34 M-125.4 -9.45 C-133.48 -6.14, -141.69 -3.5, -149.05 -1.34" stroke="#e03131" stroke-width="2" fill="none"></path></g><g transform="translate(2285.334514676422 644.2237376986193) rotate(0 -74.52638730305557 -0.6714088946221182)"><path d="M-125.73 7.65 C-134.13 5.4, -141.37 2.25, -149.05 -1.34 M-125.73 7.65 C-133.67 5.12, -141.78 1.92, -149.05 -1.34" stroke="#e03131" stroke-width="2" fill="none"></path></g></g><mask></mask><g transform="translate(2204.765447321768 642.880919909375) rotate(0 16.059982299804688 12.5)"><text x="0" y="17.52" font-family="Virgil, Segoe UI Emoji" font-size="20px" fill="#e03131" text-anchor="start" style="white-space: pre;" direction="ltr" dominant-baseline="alphabetic">Yes</text></g><g stroke-linecap="round" transform="translate(2582.0537988182773 14.677020601638475) rotate(0 89.96879187936429 71.16934282994487)"><path d="M-1.6 1.33 L181.31 1.17 L179.23 142.48 L-0.17 142.44" stroke="none" stroke-width="0" fill="#a5d8ff"></path><path d="M0 0 C49.75 -0.36, 101.86 0.15, 179.94 0 M0 0 C47.5 0.06, 96.64 1.06, 179.94 0 M179.94 0 C179.39 42.55, 179.73 80.66, 179.94 142.34 M179.94 0 C180.44 37.53, 180.3 73.73, 179.94 142.34 M179.94 142.34 C134.91 144.11, 86.32 143.12, 0 142.34 M179.94 142.34 C141.61 143.95, 105.71 143.15, 0 142.34 M0 142.34 C-0.88 86.6, -0.64 31.49, 0 0 M0 142.34 C-1.59 103.85, -0.4 67.8, 0 0" stroke="#1971c2" stroke-width="2" fill="none"></path></g><g transform="translate(2588.172683776255 60.84636343158334) rotate(0 83.84990692138672 25)"><text x="83.84990692138672" y="17.52" font-family="Virgil, Segoe UI Emoji" font-size="20px" fill="#1971c2" text-anchor="middle" style="white-space: pre;" direction="ltr" dominant-baseline="alphabetic">Openweathermap </text><text x="83.84990692138672" y="42.519999999999996" font-family="Virgil, Segoe UI Emoji" font-size="20px" fill="#1971c2" text-anchor="middle" style="white-space: pre;" direction="ltr" dominant-baseline="alphabetic">API</text></g><g stroke-linecap="round"><g transform="translate(2659.6539443084457 351.732464995359) rotate(0 -1.1794510056847685 197.9441212375334)"><path d="M0 0 C-0.44 83.6, -0.84 167.79, -2.36 395.89 M0 0 C-2.2 132.53, -3.97 264.53, -2.36 395.89" stroke="#2f9e44" stroke-width="2" fill="none"></path></g></g><mask></mask><g stroke-linecap="round"><g transform="translate(2067.7980328188532 751.6491608381587) rotate(0 294.8119450059346 0)"><path d="M0 0 C157.2 -1.53, 313.38 -1.6, 589.62 0 M0 0 C235.29 -0.43, 471.03 -0.96, 589.62 0" stroke="#2f9e44" stroke-width="2" fill="none"></path></g></g><mask></mask><g stroke-linecap="round"><g transform="translate(2069.140850608098 750.3063430489145) rotate(0 0.6714088946218908 -38.27030699346099)"><path d="M0 0 C1.34 -30.09, 0.97 -60.25, 1.34 -76.54 M0 0 C0.73 -16.97, 1.09 -35.37, 1.34 -76.54" stroke="#2f9e44" stroke-width="2" fill="none"></path></g><g transform="translate(2069.140850608098 750.3063430489145) rotate(0 0.6714088946218908 -38.27030699346099)"><path d="M9.7 -52.98 C6.9 -62.41, 2.77 -71.99, 1.34 -76.54 M9.7 -52.98 C8.42 -57.59, 6.52 -63.61, 1.34 -76.54" stroke="#2f9e44" stroke-width="2" fill="none"></path></g><g transform="translate(2069.140850608098 750.3063430489145) rotate(0 0.6714088946218908 -38.27030699346099)"><path d="M-7.4 -53.12 C-3.56 -62.63, -1.05 -72.16, 1.34 -76.54 M-7.4 -53.12 C-4.68 -57.64, -2.59 -63.63, 1.34 -76.54" stroke="#2f9e44" stroke-width="2" fill="none"></path></g></g><mask></mask><g transform="translate(1205.5600558126557 499.7720654426912) rotate(0 131.349853515625 50)"><text x="0" y="17.52" font-family="Virgil, Segoe UI Emoji" font-size="20px" fill="#1971c2" text-anchor="start" style="white-space: pre;" direction="ltr" dominant-baseline="alphabetic">POST: /v1/location/current</text><text x="0" y="42.519999999999996" font-family="Virgil, Segoe UI Emoji" font-size="20px" fill="#1971c2" text-anchor="start" style="white-space: pre;" direction="ltr" dominant-baseline="alphabetic">Lat: float</text><text x="0" y="67.52" font-family="Virgil, Segoe UI Emoji" font-size="20px" fill="#1971c2" text-anchor="start" style="white-space: pre;" direction="ltr" dominant-baseline="alphabetic">Lng: float</text><text x="0" y="92.52" font-family="Virgil, Segoe UI Emoji" font-size="20px" fill="#1971c2" text-anchor="start" style="white-space: pre;" direction="ltr" dominant-baseline="alphabetic"></text></g><g stroke-linecap="round"><g transform="translate(2346.880464776363 135.30608038220305) rotate(0 -4.547473508864641e-13 58.85293854835237)"><path d="M0 0 C0.65 37.12, 0 71.87, 0 117.71 M0 0 C0.42 45.39, -0.3 90.94, 0 117.71" stroke="#e03131" stroke-width="2" fill="none"></path></g></g><mask></mask><g stroke-linecap="round" transform="translate(2233.3525557172716 10) rotate(0 79.89765846003229 70.74254231395395)"><path d="M79.76 0.95 L158.31 69.18 L81.27 141.73 L1.19 69.46" stroke="none" stroke-width="0" fill="#ffc9c9" fill-rule="evenodd"></path><path d="M80 0 C101.03 16.19, 119.13 33.77, 159.8 71 M80 0 C98.52 16.16, 117.64 32.65, 159.8 71 M159.8 71 C130.1 98.72, 97.34 123.81, 80 141.49 M159.8 71 C132.62 95.46, 105.71 117.57, 80 141.49 M80 141.49 C51.53 117.84, 23.05 92.24, 0 71 M80 141.49 C57.88 122.48, 35.29 103.26, 0 71 M0 71 C29.06 48.45, 56.2 23.01, 80 0 M0 71 C23.55 49.92, 48.62 28.44, 80 0" stroke="#e03131" stroke-width="2" fill="none"></path></g><g transform="translate(2283.011422178733 68.37127115697697) rotate(0 30.289962768554688 12.5)"><text x="30.289962768554688" y="17.52" font-family="Virgil, Segoe UI Emoji" font-size="20px" fill="#e03131" text-anchor="middle" style="white-space: pre;" direction="ltr" dominant-baseline="alphabetic">Exist?</text></g><g stroke-linecap="round"><g transform="translate(2313.228329116967 261.8535842193669) rotate(0 -0.8558230536709743 -48.78191405923218)"><path d="M0 0 C-1.19 -38.4, 0.46 -74.44, -1.71 -97.56 M0 0 C-0.65 -31.48, -0.66 -63.06, -1.71 -97.56" stroke="#2f9e44" stroke-width="2" fill="none"></path></g><g transform="translate(2313.228329116967 261.8535842193669) rotate(0 -0.8558230536709743 -48.78191405923218)"><path d="M7.39 -74.28 C3.44 -84.7, 2.3 -92.76, -1.71 -97.56 M7.39 -74.28 C3.97 -81.67, 1.58 -89.23, -1.71 -97.56" stroke="#2f9e44" stroke-width="2" fill="none"></path></g><g transform="translate(2313.228329116967 261.8535842193669) rotate(0 -0.8558230536709743 -48.78191405923218)"><path d="M-9.71 -73.88 C-7.22 -84.44, -1.91 -92.65, -1.71 -97.56 M-9.71 -73.88 C-7.59 -81.56, -4.46 -89.25, -1.71 -97.56" stroke="#2f9e44" stroke-width="2" fill="none"></path></g></g><mask></mask><g stroke-linecap="round"><g transform="translate(2402.593809420299 84.87827172909046) rotate(0 70.51181068027836 -0.8495398877142364)"><path d="M0 0 C51.87 -1.72, 104.99 -1.65, 141.02 -1.7 M0 0 C47.45 -1.39, 93.81 -1.43, 141.02 -1.7" stroke="#e03131" stroke-width="2" fill="none"></path></g><g transform="translate(2402.593809420299 84.87827172909046) rotate(0 70.51181068027836 -0.8495398877142364)"><path d="M117.58 6.97 C124.94 2.37, 133.53 -0.2, 141.02 -1.7 M117.58 6.97 C126.26 3.92, 133.85 1.58, 141.02 -1.7" stroke="#e03131" stroke-width="2" fill="none"></path></g><g transform="translate(2402.593809420299 84.87827172909046) rotate(0 70.51181068027836 -0.8495398877142364)"><path d="M117.49 -10.13 C124.86 -8.26, 133.5 -4.35, 141.02 -1.7 M117.49 -10.13 C126.21 -7.54, 133.83 -4.24, 141.02 -1.7" stroke="#e03131" stroke-width="2" fill="none"></path></g></g><mask></mask><g transform="translate(2457.860291753256 57.956504004368185) rotate(0 11.979988098144531 12.5)"><text x="0" y="17.52" font-family="Virgil, Segoe UI Emoji" font-size="20px" fill="#e03131" text-anchor="start" style="white-space: pre;" direction="ltr" dominant-baseline="alphabetic">No</text></g><g transform="translate(2363.695590075892 184.06994375083764) rotate(0 16.059982299804688 12.5)"><text x="0" y="17.52" font-family="Virgil, Segoe UI Emoji" font-size="20px" fill="#e03131" text-anchor="start" style="white-space: pre;" direction="ltr" dominant-baseline="alphabetic">Yes</text></g><g stroke-linecap="round"><g transform="translate(2686.545995826854 160.52876833149617) rotate(0 -149.65461516581013 80.71260143774043)"><path d="M0 0 C-1.29 42.14, -1.99 83.65, 0 161.43 M0 0 C0.83 47.03, 1.15 95.46, 0 161.43 M0 161.43 C-93.57 159.5, -183.76 156.5, -299.31 151.34 M0 161.43 C-87.57 157.88, -174.96 154.31, -299.31 151.34" stroke="#1971c2" stroke-width="2" fill="none"></path></g><g transform="translate(2686.545995826854 160.52876833149617) rotate(0 -149.65461516581013 80.71260143774043)"><path d="M-275.59 143.43 C-282.22 145.55, -289.08 147.14, -299.31 151.34 M-275.59 143.43 C-282 144.99, -288.72 147.88, -299.31 151.34" stroke="#1971c2" stroke-width="2" fill="none"></path></g><g transform="translate(2686.545995826854 160.52876833149617) rotate(0 -149.65461516581013 80.71260143774043)"><path d="M-276.06 160.53 C-282.48 158.2, -289.22 155.35, -299.31 151.34 M-276.06 160.53 C-282.35 157.01, -288.93 154.84, -299.31 151.34" stroke="#1971c2" stroke-width="2" fill="none"></path></g></g><mask></mask><g stroke-linecap="round"><g transform="translate(2388.9182780251863 350.53968421617685) rotate(0 131.99873360130482 1.6815125299528972)"><path d="M0 0 C59.59 0, 119.45 0.7, 264 3.36 M0 0 C86.34 2.55, 173.02 3.26, 264 3.36" stroke="#2f9e44" stroke-width="2" fill="none"></path></g></g><mask></mask></svg>